<?xml version="1.0" encoding="utf-8"?>
<!-- Designed by Vexels.com - 2016 All Rights Reserved - https://vexels.com/terms-and-conditions/  -->

<svg version="1.0" id="Capa_1" xmlns="http://www.w3.org/2000/svg" xmlns:xlink="http://www.w3.org/1999/xlink" x="0px" y="0px"
	 width="1200px" height="1199.999px" viewBox="0 0 1200 1199.999" enable-background="new 0 0 1200 1199.999" xml:space="preserve">
<g>
	<path fill-rule="evenodd" clip-rule="evenodd" fill="#B69672" d="M276.196,1101.619c-10.484-10.343-84.125-56.841-97.873-76.24
		c-36.438-51.501,38.148-60.416,61.208-28.103c23.511,32.99,86.371,47.968,82.006-2.544c-0.424-5.284,14.75-90.879,14.75-124.294
		c0-30.985-2.571-107.029-10.356-134.975c-17.874-63.864,127.092-76.806,112.001-2.882c-45.581,22.761-8.224,14.708-65.531,14.708
		c-0.438,0-1.399,56.163,14.694,56.163c118.868,0-8.237-22.734,98.989-22.734c29.699,0,59.936,17.336,60.19,17.407
		c3.857,20.643,10.709,6.839,10.709,57.492c0,33.5-6.401,12.9,41.554,15.937c18.904,1.201,21.533,48.335,0.127,74.022
		c-12.547,15.076,61.221,31.085,42.231,76.666c-16.191,38.869-52.898,60.5-87.417,96.092
		C463.195,1211.515,353.129,1177.266,276.196,1101.619z"/>
	<polygon fill-rule="evenodd" clip-rule="evenodd" fill="#8D9397" points="296.825,994.732 229.951,943.895 387.788,765.995 
		449.305,823.515 	"/>
	<polygon fill-rule="evenodd" clip-rule="evenodd" fill="#707276" points="271.151,976.492 259.015,965.526 404.686,792.346 
		420.935,804.582 	"/>
	<path fill-rule="evenodd" clip-rule="evenodd" fill="#E1C2A2" d="M580.381,868.997C475.119,845.67,349.752,978.426,449.969,982.68
		c5.227,0.226,155.293-51.134,153.825-85.594C603.03,879.621,602.493,873.899,580.381,868.997z"/>
	<path fill-rule="evenodd" clip-rule="evenodd" fill="#E1C2A2" d="M613.81,966.643c-59.511-18.778-116.013,22.592-170.085,45.806
		c-48.703,20.925,26.548,66.293,84.167,32.002c17.845-10.611,159.347-7.305,100.415-66.222
		C624.761,974.654,618.262,968.028,613.81,966.643z"/>
	<path fill-rule="evenodd" clip-rule="evenodd" fill="#B1B5B6" d="M206.539,979.021c-20.869,1.892-25.503-59.357,23.907-43.928
		c17.125,5.355,67.198,38.643,72.383,56.277c6.259,0.522,16.078,51.656-34.588,33.895
		C256.471,1021.139,213.829,978.357,206.539,979.021z"/>
	<path fill-rule="evenodd" clip-rule="evenodd" fill="#B1B5B6" d="M206.539,979.021c-20.869,1.892-25.503-59.357,23.907-43.928
		c17.125,5.355,67.198,38.643,72.383,56.277c6.259,0.522,16.078,51.656-34.588,33.895
		C256.471,1021.139,213.829,978.357,206.539,979.021z"/>
	<path fill-rule="evenodd" clip-rule="evenodd" fill="#7F8386" d="M206.539,979.021c-9.254,0.846-15.331-10.753-14.863-22.565
		c30.759,14.03,73.81,45.142,98.381,72.398c-5.567,0.566-12.716-0.409-21.815-3.59
		C256.471,1021.139,213.829,978.357,206.539,979.021z"/>
	<path fill-rule="evenodd" clip-rule="evenodd" fill="#C6C7C9" d="M732.651,307.279C610.25,449.758,487.878,592.278,365.491,734.77
		c6.147,35.21,74.32,93.916,108.979,110.673c119.574-148.086,239.177-296.187,358.78-444.317
		c7.814-13.664,10.625-59.201,3.349-83.814c-6.146-9.481-18.156-16.475-28.5-18.411C787.147,296.64,754.424,295.241,732.651,307.279
		z"/>
	<path fill-rule="evenodd" clip-rule="evenodd" fill="#FFF6DD" d="M825.635,381.472c18.65-44.747-58.057-81.751-87.206-58.834
		C626.654,452.47,494.999,613.627,383.238,743.459c24.812,32.159,64.882,62.649,96.516,76.184
		C587.587,687.013,717.815,514.144,825.635,381.472z"/>
	<path fill-rule="evenodd" clip-rule="evenodd" fill="#ED59A3" d="M590.172,660.069c-46.103,20.234-86.06-31.013-75.209-57.562
		L730.857,344.03c32.581-41.314,103.581,11.246,73.584,58.424C736.593,485.646,658.006,576.891,590.172,660.069z"/>
	<path fill-rule="evenodd" clip-rule="evenodd" fill="#707276" d="M794.536,304.637c11.855-15.556,23.682-31.112,35.535-46.654
		c14.694-2.431,40.763,17.181,44.04,34.673l-39.32,51.303C822.626,349.907,784.265,325.788,794.536,304.637z"/>
	<path fill-rule="evenodd" clip-rule="evenodd" fill="#38343B" d="M865.972,288.757c-8.491,4.139-33.895-16.306-31.775-24.486
		c15.725-18.877,34.431-36.087,50.171-54.991c6.217-1.879,19.641,9.792,19.923,17.195L865.972,288.757z"/>
	<path fill-rule="evenodd" clip-rule="evenodd" fill="#707276" d="M896.293,218.535c-3.135,1.454-7.657,6.443-6.159-4.381
		l141.404-188.849l-15.796,24.599L896.293,218.535z"/>
	<path fill-rule="evenodd" clip-rule="evenodd" fill="#E1C2A2" d="M453.968,780.718c-19.695,0-78.982,66.887,87.939,66.887
		c27.637,0,54.185-66.887-66.519-66.887C468.238,780.718,461.117,780.718,453.968,780.718z"/>
	<path fill-rule="evenodd" clip-rule="evenodd" fill="#E1C2A2" d="M400.151,664.69c-23.991-3.985-65.107,9.141-71.226,35.054
		c-8.704,36.864,8.082,43.052,42.811,49.367c52.009,9.481,102.888-30.123,52.815-75.238
		C414.816,665.1,401.563,664.93,400.151,664.69z"/>
	<path fill-rule="evenodd" clip-rule="evenodd" fill="#ED59A3" d="M509.665,607.565c7.418-10.469,31.38-6.203,53.535,9.523
		c22.112,15.74,34.036,36.991,26.591,47.433c-7.433,10.455-31.409,6.188-53.55-9.537
		C514.13,639.258,502.205,618.007,509.665,607.565z"/>
	<path fill-rule="evenodd" clip-rule="evenodd" fill="#FFF6DD" d="M693.189,416.908c5.962,0,10.808,4.847,10.808,10.809
		c0,5.99-4.845,10.808-10.808,10.808c-5.949,0-10.795-4.818-10.795-10.808C682.394,421.754,687.239,416.908,693.189,416.908z"/>
	<path fill-rule="evenodd" clip-rule="evenodd" fill="#FFF6DD" d="M646.929,486.139c8.209,0,14.878,6.684,14.878,14.879
		c0,8.209-6.668,14.892-14.878,14.892c-8.209,0-14.863-6.683-14.863-14.892C632.066,492.824,638.72,486.139,646.929,486.139z"/>
	<path fill-rule="evenodd" clip-rule="evenodd" fill="#FFF6DD" d="M601.321,581.398c8.237,0,14.878,6.655,14.878,14.865
		c0,8.222-6.641,14.878-14.878,14.878c-8.196,0-14.85-6.655-14.85-14.878C586.471,588.053,593.125,581.398,601.321,581.398z"/>
	<path fill-rule="evenodd" clip-rule="evenodd" fill="#FFF6DD" d="M609.445,540.213c2.6,0,4.718,2.091,4.718,4.704
		c0,2.614-2.118,4.734-4.718,4.734c-2.614,0-4.72-2.12-4.72-4.734C604.726,542.304,606.831,540.213,609.445,540.213z"/>
	<path fill-rule="evenodd" clip-rule="evenodd" fill="#FFF6DD" d="M721.588,440.22c4.083,0,7.431,3.349,7.431,7.447
		c0,4.097-3.348,7.418-7.431,7.418c-4.112,0-7.447-3.32-7.447-7.418C714.142,443.57,717.476,440.22,721.588,440.22z"/>
	<path fill-rule="evenodd" clip-rule="evenodd" fill="#FFF6DD" d="M785.069,372.669c4.112,0,7.432,3.32,7.432,7.431
		c0,4.112-3.32,7.418-7.432,7.418c-4.111,0-7.446-3.306-7.446-7.418C777.624,375.99,780.959,372.669,785.069,372.669z"/>
	<path fill-rule="evenodd" clip-rule="evenodd" fill="#FFF6DD" d="M745.904,357.819c2.614,0,4.719,2.105,4.719,4.72
		c0,2.613-2.105,4.72-4.719,4.72c-2.628,0-4.747-2.107-4.747-4.72C741.157,359.924,743.276,357.819,745.904,357.819z"/>
	<path fill-rule="evenodd" clip-rule="evenodd" fill="#FFF6DD" d="M698.614,484.473c5.962,0,10.795,4.832,10.795,10.795
		c0,5.962-4.832,10.809-10.795,10.809c-5.977,0-10.809-4.847-10.809-10.809C687.805,489.305,692.637,484.473,698.614,484.473z"/>
	<path fill-rule="evenodd" clip-rule="evenodd" fill="#FFF6DD" d="M552.688,573.642c5.949,0,10.795,4.832,10.795,10.795
		s-4.845,10.809-10.795,10.809c-5.962,0-10.795-4.847-10.795-10.809S546.725,573.642,552.688,573.642z"/>
</g>
</svg>
